<?xml version="1.0" standalone="no"?>
<!DOCTYPE svg PUBLIC "-//W3C//DTD SVG 20010904//EN"
 "http://www.w3.org/TR/2001/REC-SVG-20010904/DTD/svg10.dtd">
<svg version="1.0" xmlns="http://www.w3.org/2000/svg"
 width="960.000000pt" height="960.000000pt" viewBox="0 0 960.000000 960.000000"
 preserveAspectRatio="xMidYMid meet">
<metadata>
Created by potrace 1.14, written by Peter Selinger 2001-2017
</metadata>
<g transform="translate(0.000000,960.000000) scale(0.100000,-0.100000)"
fill="#000000" stroke="none">
<path d="M1448 9595 c-2 -3 -18 -6 -34 -9 -16 -2 -36 -6 -44 -9 -8 -3 -27 -8
-42 -11 -29 -7 -159 -66 -168 -76 -3 -3 -22 -16 -42 -29 -21 -12 -38 -27 -38
-32 0 -5 -5 -9 -11 -9 -19 0 -116 -112 -159 -183 -49 -83 -67 -128 -90 -232
-18 -77 -18 -254 -16 -4230 2 -2282 4 -4158 5 -4167 1 -10 7 -18 12 -18 6 0 8
-4 4 -9 -7 -13 55 -181 75 -201 3 -3 12 -18 20 -34 19 -36 170 -196 185 -196
7 0 20 -9 30 -20 10 -11 24 -20 32 -20 7 0 13 -4 13 -10 0 -5 5 -10 10 -10 6
0 29 -9 53 -19 44 -20 116 -45 164 -57 36 -9 6713 -11 6773 -2 25 4 68 14 95
22 28 8 53 14 56 13 4 -1 17 7 29 18 12 11 24 18 26 15 7 -10 158 97 200 142
24 26 44 44 44 41 0 -7 34 43 77 113 35 57 77 169 90 235 4 24 8 1914 8 4199
0 4047 0 4157 -19 4225 -20 76 -21 78 -56 145 -64 126 -179 255 -268 301 -15
8 -33 20 -40 26 -7 7 -25 16 -40 20 -15 3 -30 10 -33 15 -3 5 -14 10 -25 12
-11 2 -44 11 -73 20 -30 9 -57 13 -62 10 -5 -3 -9 0 -9 5 0 11 -6721 17 -6732
6z"/>
</g>
</svg>
