<?xml version="1.0" encoding="UTF-8"?>
<svg id="Layer_2" data-name="Layer 2" xmlns="http://www.w3.org/2000/svg" viewBox="0 0 220.17 209.39">
  <defs>
    <style>
      .Graphic_Style_17 {
        fill: #b6ce95;
      }

      .Graphic_Style_17, .Graphic_Style_11, .Graphic_Style_12, .Graphic_Style_4, .Graphic_Style_10, .Graphic_Style_5, .Graphic_Style_14, .Graphic_Style_3, .Graphic_Style_15, .Graphic_Style_13, .Graphic_Style_18, .Graphic_Style_2, .Graphic_Style, .Graphic_Style_7, .Graphic_Style_6, .Graphic_Style_8, .Graphic_Style_9, .Graphic_Style_19, .Graphic_Style_16, .Graphic_Style_20 {
        stroke-width: 0px;
      }

      .Graphic_Style_11 {
        fill: #91c19e;
      }

      .Graphic_Style_12 {
        fill: #c7bb85;
      }

      .Graphic_Style_4 {
        fill: #8d8497;
      }

      .Graphic_Style_10 {
        fill: #66a2ac;
      }

      .Graphic_Style_5 {
        fill: #c45a73;
      }

      .Graphic_Style_14 {
        fill: #a9cb96;
      }

      .Graphic_Style_3 {
        fill: #b3587f;
      }

      .Graphic_Style_15 {
        fill: #d9b980;
      }

      .Graphic_Style_13 {
        fill: #5cabb1;
      }

      .Graphic_Style_18 {
        fill: #edbb79;
      }

      .Graphic_Style_2 {
        fill: #de7d69;
      }

      .Graphic_Style {
        fill: #fcbf73;
      }

      .Graphic_Style_7 {
        fill: #7695a3;
      }

      .Graphic_Style_6 {
        fill: #a05f88;
      }

      .Graphic_Style_8 {
        fill: #87b4a2;
      }

      .Graphic_Style_9 {
        fill: #896c95;
      }

      .Graphic_Style_19 {
        fill: #ed9669;
      }

      .Graphic_Style_16 {
        fill: #f1a970;
      }

      .Graphic_Style_20 {
        fill: #c45875;
      }
    </style>
  </defs>
  <g id="Logos">
    <g>
      <polygon class="Graphic_Style_13" points="178.12 209.39 202.03 135.8 185.99 159.29 151.78 209.39 178.12 209.39"/>
      <polygon class="Graphic_Style_14" points="176.74 78.19 202.03 135.8 185.99 159.29 179.3 100.67 176.74 78.19"/>
      <polygon class="Graphic_Style_15" points="130.23 56.9 176.74 78.19 179.3 100.67 143.94 69.13 130.23 56.9"/>
      <polygon class="Graphic_Style_16" points="90.49 69.13 143.94 69.13 130.23 56.9 90.49 69.13"/>
      <polygon class="Graphic_Style_17" points="220.17 79.98 157.56 34.5 174.95 57.01 212.03 105.03 220.17 79.98"/>
      <polygon class="Graphic_Style_18" points="94.96 40.75 157.56 34.5 174.95 57.01 117.13 45.26 94.96 40.75"/>
      <polygon class="Graphic_Style_19" points="60.34 78.4 94.96 40.75 117.13 45.26 76.21 69.14 60.34 78.4"/>
      <polygon class="Graphic_Style_20" points="59.69 119.98 76.21 69.14 60.34 78.4 59.69 119.98"/>
      <polygon class="Graphic_Style" points="110.08 0 47.48 45.49 74.27 35.91 131.39 15.49 110.08 0"/>
      <polygon class="Graphic_Style_2" points="34.08 106.96 47.48 45.49 74.27 35.91 45.22 87.27 34.08 106.96"/>
      <polygon class="Graphic_Style_3" points="59.2 151.51 34.08 106.96 45.22 87.27 55.29 133.56 59.2 151.51"/>
      <polygon class="Graphic_Style_4" points="98.54 164.98 55.29 133.56 59.2 151.51 98.54 164.98"/>
      <polygon class="Graphic_Style_5" points="0 79.98 23.92 153.57 23.08 125.14 21.31 64.5 0 79.98"/>
      <polygon class="Graphic_Style_6" points="78.24 185.31 23.92 153.57 23.08 125.14 62.95 168.64 78.24 185.31"/>
      <polygon class="Graphic_Style_7" points="128.37 175.2 78.24 185.31 62.95 168.64 110.09 173.37 128.37 175.2"/>
      <polygon class="Graphic_Style_8" points="153.34 141.95 110.09 173.37 128.37 175.2 153.34 141.95"/>
      <polygon class="Graphic_Style_9" points="42.05 209.39 119.43 209.39 92.13 201.39 33.91 184.34 42.05 209.39"/>
      <polygon class="Graphic_Style_10" points="166.4 167.54 119.43 209.39 92.13 201.39 145.82 176.92 166.4 167.54"/>
      <polygon class="Graphic_Style_11" points="172.28 116.73 166.4 167.54 145.82 176.92 164.88 133.55 172.28 116.73"/>
      <polygon class="Graphic_Style_12" points="148.36 82.71 164.88 133.55 172.28 116.73 148.36 82.71"/>
    </g>
  </g>
</svg>